<svg id="Layer_1" data-name="Layer 1" xmlns="http://www.w3.org/2000/svg" xmlns:xlink="http://www.w3.org/1999/xlink" viewBox="0 0 230.26 294.85"><defs><style>.cls-1{fill:url(#Gradient);}.cls-2{fill:#d71920;}.cls-3{fill:#fff;}.cls-4{fill:url(#linear-gradient);}.cls-5{fill:url(#linear-gradient-2);}.cls-6{fill:url(#linear-gradient-3);}.cls-7{fill:url(#linear-gradient-4);}.cls-8{fill:url(#linear-gradient-5);}.cls-9{fill:url(#linear-gradient-6);}.cls-10{fill:#4864bf;}.cls-11{fill:url(#Gradient-2);}</style><linearGradient id="Gradient" y1="229.23" x2="358.02" y2="229.23" gradientUnits="userSpaceOnUse"><stop offset="0" stop-color="#ffdba7"/><stop offset="0.13" stop-color="#c3b296"/><stop offset="0.25" stop-color="#ffe7c4"/><stop offset="0.5" stop-color="#c29977"/><stop offset="0.64" stop-color="#ffe7c4"/><stop offset="1" stop-color="#c29977"/></linearGradient><linearGradient id="linear-gradient" x1="198.77" y1="181.44" x2="260.57" y2="119.65" gradientUnits="userSpaceOnUse"><stop offset="0.06" stop-color="#ffdba7"/><stop offset="0.5" stop-color="#c3b296"/><stop offset="1" stop-color="#ffdba7"/></linearGradient><linearGradient id="linear-gradient-2" x1="125.92" y1="183.19" x2="193.85" y2="115.27" xlink:href="#linear-gradient"/><linearGradient id="linear-gradient-3" x1="264.32" y1="191.95" x2="331.49" y2="124.78" xlink:href="#linear-gradient"/><linearGradient id="linear-gradient-4" x1="19.57" y1="197.15" x2="98.99" y2="117.73" xlink:href="#linear-gradient"/><linearGradient id="linear-gradient-5" x1="84.4" y1="176.84" x2="135.9" y2="125.34" xlink:href="#linear-gradient"/><linearGradient id="linear-gradient-6" x1="96.17" y1="86.27" x2="261.47" y2="86.27" xlink:href="#Gradient"/><linearGradient id="Gradient-2" x1="60.64" y1="308.62" x2="291.37" y2="308.62" xlink:href="#Gradient"/><symbol id="Punjab_Kings_" data-name="Punjab Kings " viewBox="0 0 358.02 458.46"><path class="cls-1" d="M348.14,34.21a215,215,0,0,1-62.42,9.4c-18.59,0-36-2.63-51.64-7.83A125.66,125.66,0,0,1,184.22,5.26L179,0l-5.26,5.26a124.91,124.91,0,0,1-50,30.43c-15.77,5.17-33.28,7.79-52,7.79a219.79,219.79,0,0,1-61.85-9L0,31.2V257.05c0,31.7,8.55,61.78,25.41,89.42,13.67,22.39,32.74,43.15,56.7,61.69,41.68,32.25,85.79,48.2,96.3,50.07l1.3.23,1.3-.23c9-1.59,53.86-17.52,95.69-50.22,23.73-18.56,42.63-39.32,56.16-61.7A170.26,170.26,0,0,0,358,257.05V30.78Z"/><path class="cls-2" d="M179.71,447c-9.8-2.1-51.32-17.26-90.76-47.78-22.88-17.7-41.05-37.44-54-58.67A158.45,158.45,0,0,1,11.17,256.9V46.39a232.58,232.58,0,0,0,60.47,8.12C115,54.51,152,41.06,179,15.58c27.31,25.92,63.21,39.06,106.76,39.06a228.46,228.46,0,0,0,61.13-8.48V256.9a159.26,159.26,0,0,1-23.55,83.49c-12.83,21.22-30.82,41-53.49,58.68C230.61,429.72,189.43,444.87,179.71,447Z"/><path class="cls-3" d="M179,20.67A140.52,140.52,0,0,0,229.4,49.79c17.18,5.7,36.14,8.59,56.33,8.59a233.82,233.82,0,0,0,57.38-7.33V256.9a155.58,155.58,0,0,1-23,81.55c-12.59,20.83-30.29,40.24-52.59,57.67-37.81,29.56-77.21,44.46-87.8,47-10.68-2.56-50.42-17.46-88.47-46.91-22.52-17.42-40.38-36.82-53.1-57.66A154.83,154.83,0,0,1,14.91,256.9V51.24a238.57,238.57,0,0,0,56.73,7c20.35,0,39.43-2.87,56.69-8.53a140.45,140.45,0,0,0,50.64-29m0-10.3c-32.12,32.11-73.34,40.4-107.33,40.4A222.92,222.92,0,0,1,7.43,41.36V256.9C7.43,389,161.28,447.49,179.71,450.77c18.58-3.3,170.88-62.1,170.88-193.87V41.08a218.69,218.69,0,0,1-64.86,9.82C252,50.9,211.14,42.54,179,10.37Z"/><path class="cls-3" d="M257.2,190.49c-15.92-3-32.65-4.4-49.74-5.38-.91-.06-7.79-.35-7.79-7.86V112.86h47.41c6.3,0,10,3.51,10,7.52v9.89l-16.55-.89c-1.85,0-3.4-1.33-3.42-2.85v-4.44H219.68v54.16s13.61.54,17.46,1.39V147.89c-.48,0-8.7-.53-8.7-.53l3.26-9,15.81.59s9.69.39,9.69,10.55C257.2,149.51,257.21,189.05,257.2,190.49Z"/><path class="cls-4" d="M258.28,191.79l-1.28-.24c-17.23-3.21-35.56-4.55-49.6-5.36-5.53-.31-8.82-3.65-8.81-8.94V111.78h48.49c7.26,0,11.1,4.32,11.14,8.6v11l-17.7-.94c-2.42-.07-4.43-1.83-4.44-3.93v-3.36H220.77v52c2.93.13,11.17.53,15.29,1.14V148.93c-2-.11-6.19-.38-7.69-.48l-1.45-.1,4-11.09,16.6.61c.12,0,10.74.56,10.74,11.64v42.28ZM200.76,114v63.3c0,5.56,4.22,6.63,6.73,6.77,13.79.8,31.65,2.1,48.63,5.16,0-7,0-39.31,0-39.67,0-9-8.29-9.45-8.64-9.47l-15-.55-2.5,6.88c3,.2,6.75.43,7.16.43h1.1l0,1.09V179l-1.32-.29c-3.71-.82-17.13-1.36-17.27-1.36l-1-.05V121h19.65v5.53c0,.9,1.11,1.73,2.35,1.76l15.45.83v-8.74c0-3.78-3.72-6.43-9-6.43Z"/><path class="cls-3" d="M189.27,112.86H169.39l0,24.79-17.59-24.79h-20v73.83c6.58-.79,13.26-1,20-1.43v-48l17.54,25.26,0,21.89c3.84-.11,7.69-.16,11.57-.16,2.83,0,5.64,0,8.45.09Z"/><path class="cls-5" d="M130.64,187.91V111.78h21.67l15.95,22.47,0-22.47h22.06v73.68l-1.11,0c-3.22-.07-5.9-.1-8.43-.1-3.73,0-7.61.06-11.54.16l-1.12,0,.05-22.66-15.37-22.13v45.53l-1,.07c-2.16.15-4.3.27-6.44.39-4.46.25-9.07.51-13.53,1Zm2.17-74v71.52c4.14-.45,8.37-.68,12.46-.91,1.79-.1,3.59-.2,5.4-.32V133.8l19.71,28.39,0,21.11c3.57-.08,7.09-.13,10.48-.13,2.25,0,4.62,0,7.36.07V114H170.47l-.05,27.1L151.19,114Z"/><path class="cls-3" d="M323.07,135.31V121.57c0-5.69-4.43-8.71-9.59-8.71H266.75v27.47c0,8.37,9.24,9.41,9.24,9.41s21.52,2.42,27.05,3.16v35.27c-5.23-1.49-16.27-3.66-16.27-3.66s0-14,0-15a3.86,3.86,0,0,0-3.14-3.46c-5-.88-16.88-2.68-16.88-2.68s0,21.55,0,29a328.1,328.1,0,0,1,56.32,16.9V155.79c0-10.59-9.78-12.21-9.78-12.21h0s-8.41-1.41-26.5-2.79V122.11H303v7.09c0,3.65,3.8,4,3.8,4Z"/><path class="cls-6" d="M324.16,210.93l-1.5-.61a328.51,328.51,0,0,0-56.13-16.84l-.86-.18v-.88c0-7.46,0-29,0-29v-1.26l1.25.19c.12,0,11.95,1.81,16.9,2.68a5,5,0,0,1,4,4.52v14.08c2.46.49,9.5,1.93,14.1,3.13V153.86c-6.62-.85-25.88-3-26.09-3-3.53-.4-10.2-3.1-10.2-10.49V111.78h47.81a11.58,11.58,0,0,1,7.43,2.47,9.23,9.23,0,0,1,3.25,7.32v15l-17.48-2.29a5.06,5.06,0,0,1-4.75-5.06v-6H287.86v16.58c8.84.69,15.23,1.38,19.08,1.84,3.4.41,5.26.64,6.27.86l.17,0a13,13,0,0,1,10.78,13.29Zm-56.32-19.39A331,331,0,0,1,322,207.71V155.79a10.89,10.89,0,0,0-8.87-11.14l.17-1h0l-.18,1c-.08,0-8.5-1.41-26.4-2.78l-1-.07V121H304.1v8.18c0,2.62,2.7,2.89,2.82,2.9l15.06,2v-12.5a7.07,7.07,0,0,0-2.47-5.65,9.37,9.37,0,0,0-6-2H267.84v26.38c0,7.28,7.94,8.29,8.28,8.33s21.58,2.43,27.07,3.17l.94.12v37.66l-1.39-.39c-5.13-1.47-16.07-3.62-16.18-3.64l-.88-.17v-.9s0-14,0-14.95a2.82,2.82,0,0,0-2.28-2.41c-3.94-.69-12.38-2-15.56-2.48C267.84,169.19,267.82,184.63,267.84,191.54Z"/><path class="cls-3" d="M93.67,192.26,80.79,148.83l-5.24.49,15.82-36.46H70.51l-14,29.59V112.86h-22v96.53a196.39,196.39,0,0,1,22-7.95v-49l3.61-.62,11.93,45.1C78,195.05,93.67,192.26,93.67,192.26Z"/><path class="cls-7" d="M33.48,211.07V111.78H57.65V137.6l12.17-25.82H93L77.28,148.07l4.3-.4,13.48,45.44-1.2.22c-.15,0-15.66,2.8-21.44,4.58l-1.08.34L59.37,153l-1.72.29v48.94l-.78.24A195.74,195.74,0,0,0,35,210.38ZM35.66,114v93.79a208.83,208.83,0,0,1,19.81-7.1V151.48l5.49-.93,11.91,45c5.45-1.51,15.87-3.47,19.42-4.12L80,150l-6.18.58L89.72,114H71.2L55.47,147.3V114Z"/><path class="cls-3" d="M121.24,112.86H100.75v77.89a194.85,194.85,0,0,1,20.49-3Z"/><path class="cls-8" d="M99.66,192.1V111.78h22.67v76.93l-1,.1a195.59,195.59,0,0,0-20.37,3ZM101.83,114v75.47c2.73-.54,9.48-1.76,18.33-2.68V114Z"/><path class="cls-9" d="M197,77.3,195.44,73h8.2V99.52H186.21a3.45,3.45,0,0,1-3.44-3.45V89.71h6.69v5.53H197Zm61.11,8.48s3.41.86,3.41,3.49V96.5a3,3,0,0,1-3,3h-20.4l.07-22.21L236.61,73h21.76a3,3,0,0,1,3,3v6.26c0,2.48-3.33,3.47-3.33,3.47m-13.24-2.19h9.88V77.31h-9.88Zm10,4.27h-10v7.38h10ZM225.76,73l8.51,26.49h-6.43l-2.25-6.94h-10l-2.25,6.94h-6.43l7.66-22.34L214.51,73Zm-5.16,4.15-3.52,10.87h7ZM117.33,73a3.7,3.7,0,0,1,3.7,3.7V87.07a5.48,5.48,0,0,1-.12,1.08,2.85,2.85,0,0,1-1.5,1.95,3.75,3.75,0,0,1-1.78.36H104.38v9.06H97.69V77.31L96.17,73h21.16m-2.91,4.27h-10v8.88h10Zm28.22,18.11H132.43V73h-8.12l1.52,4.27V96.12a3.4,3.4,0,0,0,3.39,3.4h20V73h-8.09l1.51,4.27Zm29.23-4.33-11-18h-8.31L154,77.3V99.52h6.69V82.64l10.56,16.88h7.19V73h-6.61v18Z"/><path class="cls-10" d="M179,13.49a135.39,135.39,0,0,0,52.08,31.32c16.65,5.52,35.05,8.31,54.68,8.31a228.67,228.67,0,0,0,62.63-9V256.9a160.87,160.87,0,0,1-23.76,84.27c-12.93,21.38-31.05,41.26-53.85,59.09-39.8,31.11-81.74,46.37-91,48.24-9.37-1.88-51.65-17.14-91.69-48.13-23-17.81-41.31-37.69-54.36-59.08a159.88,159.88,0,0,1-24-84.39V44.37a233,233,0,0,0,62,8.63c19.79,0,38.32-2.79,55.06-8.27A134.82,134.82,0,0,0,179,13.49m0-3.12c-32.12,32.11-73.34,40.4-107.33,40.4A222.92,222.92,0,0,1,7.43,41.36V256.9C7.43,389,161.28,447.49,179.71,450.77c18.58-3.3,170.88-62.1,170.88-193.87V41.08a218.69,218.69,0,0,1-64.86,9.82C252,50.9,211.14,42.54,179,10.37Z"/><path class="cls-11" d="M255.44,377.45s-1.24,5.42-10.27,7.47a24.76,24.76,0,0,1,4.9,3.59s-4.35,6.13-15,6.14c-14,0-22.75-12.2-22.75-12.2s6.36,3.1,12.52,2.63c-24-14.83-10.72-42.75-10.72-42.75s-1.72,19.12,6,28.73C231,384.45,251.14,379.5,255.44,377.45Zm20.84-73.27c-13.83-5.53-28.49-1.87-28.49-1.87-1.45,9.51-4,22.05-4,22.05s10.07-9.8,13.1-20.31l1.51,3.58s6.17-3.77,12.28.57l2.44-1.93c0,.34.56,18.33.56,18.33S288.21,309,276.28,304.18Zm-14.52,54.65c-3.16,8.23-12,11.42-12,11.42L249.4,372a17.81,17.81,0,0,0-11.47-.35c4.19-5.9,3.09-15.38,3.09-15.38a31.67,31.67,0,0,1-16.29,15.45,30.8,30.8,0,0,0,18.39,6.09c5.68-.09,10.19-1.5,13.44-4.47C261.89,368.47,262.27,360.76,261.76,358.83ZM145.41,234.92h0a49.3,49.3,0,0,0-13.48-6c27.67-6.12,61.14,2.35,61.14,2.35s-22.75-16.55-51.82-16.55c-41.25,0-62.11,24.62-62.11,24.62s10.46-7.75,37.24-8.88C69.91,245,60.64,286.77,60.64,286.77S87.25,237.26,145.41,234.92Zm78.34,105.84c-.66,11.3,5.57,17.46,5.57,17.46s-1.32-16.86,8.44-35.74C232.54,322.48,224.41,329.48,223.75,340.76Zm-24.9-112s19.48-.75,31.48,6.75h0s-13.77-25.1-35.13-31.19h0s11.12,8,13.86,16.12a72.77,72.77,0,0,0-39.3-18.81c-22.8-3.22-40.09,3-40.09,3s20.46-.18,39,6.19C189.8,218.08,198.85,228.73,198.85,228.73Zm90.54,59.53c-.25.29-6.09,7.09-7.94,12.5l-.27.81.84.07h.17c.83,0,4.58-.35,6.52-6.46l2.66-9.21ZM142.12,300.64a70.58,70.58,0,0,0-23,27.28c-1.3-14.3,9.19-38.36,9.19-38.36C88.07,338,110.37,383.7,110.37,383.7s.64-17.33,4.25-29.47c2.41,25.61,19.09,44,19.09,44S112.34,351.59,142.12,300.64Zm34.45,22.17S164.94,339,163,357.33c-4.18-17,3.41-42.41,3.41-42.41s-14.33,13.92-16.95,32.38c-3.28-28.09,10-50.21,10-50.21s-20.48,15.73-22.23,54.38a104.74,104.74,0,0,0,13.24,55s-1.92-18.78-1.14-29.48c8,29.58,28.18,39.59,28.18,39.59s-9.67-12.26-12.27-38.32c3.42,10.05,13.9,23.57,24.48,29.06C163.48,371.15,176.57,322.81,176.57,322.81Zm-54.16-45.29,1.61-2s-15.45,5.13-29.31,21.94c4.78-13.54,19.59-28.36,19.59-28.36A72.3,72.3,0,0,0,88.73,284.7C96.16,267.25,125.07,248,125.07,248s-27.75,7.91-44.43,27.83c-20,23.87-19.42,45.9-19.42,45.9S67,309.56,75.86,302.11c-8.34,19.09-3.9,40.16-2.23,46.49l.8,3.08.49-3.15c1.85-11.87,6.17-27.64,12-38.31-2.17,13.68-2.63,44.08,4.63,57.23l2,3.7L92.74,367C92.66,366.59,85.1,325,122.41,277.52Zm37.19-23.06s-16.18-12.53-26.85-7.32c-3.42,1.72-6.63,4.45-6.27,10.61.4,6.66,8.29,14.56,22.91,10.88,0,0-13.55,1-16.63-8.24-2.08-6.28,4.35-8.8,4.35-8.8a14.9,14.9,0,0,0,13.8,10.1,11.29,11.29,0,0,0,5.49-1.22,13.66,13.66,0,0,0-5-5.76C153.26,254.42,157.05,253.94,159.6,254.46Zm56.85,73.59L216,331l15.63-23.53S219.17,301.64,218.8,291s9.35-13.94,14-13.91c-10.44,5.42-6.68,14-6.68,14s2.26-10.79,16.13-6.32c-3.13.64-8.49,2-9.4,7.52-.48,3,2.07,6.1,7.72,5.71,31.74-2.2,39.76,3.52,39.76,3.52S286.27,283,267,275.94a29.34,29.34,0,0,1,20.19,3.43l3.65,2.13L288,278.35c-7.84-8.74-21.94-19.35-44.6-20.28l-.81,0,0,.14-.2,0a15.21,15.21,0,0,1-16.42-2c-6.79,3.59-15.84-1.7-15.84-1.7s1.7,4.71,9.52,5.08a15,15,0,0,1-16.37-2.12,15.6,15.6,0,0,1-5.14-13.06c8.67,6.68,16.36,3.13,17.83,2.79,10.45-2.41,14.14,6.13,14.16,6.16s10.21,4.35,16.31-4.6l-.06-.05h.1l-1.13-1c-.27-.23-6.72-5.73-18.08-9.71-10.45-3.67-27.16-6.63-47.44.07l-.07,0c-2.43.65-15.18,3.64-27.72-1.58l-2.78-1.16,2,2.22c10.35,11.29,22.9,10.32,29.29,8.81-4.93,8-19.05,11.5-19.05,11.5a18.6,18.6,0,0,0,16.07,2.47c-10.17,8.33-11.37,19.15-7.86,26.37a19.52,19.52,0,0,0,15.86,10.81s-4.74-12.5,2.42-23.92c-.72,4.86-1,14.28,5.81,21,12.75,12.51,10.95,26.43,10.45,29.09l-.43,2.35,1.58-1.79c4.3-4.85,5.06-13.61,5.08-17.47C213,309.39,218.11,316.62,216.45,328.05Z"/></symbol></defs><use width="358.02" height="458.46" transform="translate(0 0) scale(0.64)" xlink:href="#Punjab_Kings_"/></svg>